<?xml version="1.0" standalone="no"?>
<!DOCTYPE svg PUBLIC "-//W3C//DTD SVG 20010904//EN"
 "http://www.w3.org/TR/2001/REC-SVG-20010904/DTD/svg10.dtd">
<svg version="1.0" xmlns="http://www.w3.org/2000/svg"
 width="70.000000pt" height="70.000000pt" viewBox="0 0 70.000000 70.000000"
 preserveAspectRatio="xMidYMid meet">
<metadata>
Created by potrace 1.14, written by Peter Selinger 2001-2017
</metadata>
<g transform="translate(0.000000,70.000000) scale(0.100000,-0.100000)"
fill="#000000" stroke="none">
<path d="M305 670 c-11 -5 -29 -11 -40 -15 -16 -5 -17 -8 -5 -15 12 -7 11 -12
-4 -29 -11 -12 -15 -21 -10 -21 5 0 2 -4 -6 -9 -15 -10 -30 -6 -30 10 0 5 6 9
14 9 16 0 29 27 17 34 -5 3 -26 -3 -47 -13 -21 -10 -44 -17 -51 -14 -7 3 -13
0 -13 -6 0 -6 11 -11 25 -11 14 0 24 -3 23 -7 -2 -9 11 -296 17 -368 17 -205
20 -215 56 -215 39 0 56 32 54 101 -1 35 -3 141 -5 234 l-2 170 84 6 c164 13
209 21 204 36 -4 8 -6 32 -6 52 l0 38 -67 7 c-38 3 -80 9 -95 12 -25 6 -27 4
-23 -24 4 -30 3 -30 -25 -21 -34 12 -48 49 -19 49 10 0 19 5 19 10 0 12 -37
12 -65 0z m183 -107 c3 -18 -4 -24 -35 -32 -51 -14 -53 -14 -53 9 0 11 5 20
11 20 5 0 8 4 4 9 -5 10 27 20 55 17 8 -1 16 -11 18 -23z m-208 -3 c0 -5 -7
-10 -16 -10 -8 0 -12 5 -9 10 3 6 10 10 16 10 5 0 9 -4 9 -10z m-47 -20 c9
-11 17 -23 17 -27 0 -3 6 -11 14 -17 11 -9 15 -62 20 -239 l6 -228 -23 -8
c-12 -5 -25 -6 -29 -2 -17 17 -48 541 -31 541 5 0 16 -9 26 -20z"/>
<path d="M466 371 c-4 -5 2 -14 11 -20 10 -6 13 -11 7 -11 -6 0 -17 7 -24 15
-16 19 -30 19 -30 0 0 -17 30 -35 62 -35 l23 -1 -25 -14 c-34 -19 -48 -19 -46
2 1 23 -42 43 -77 36 -38 -8 -28 -29 13 -25 21 2 30 0 25 -7 -3 -6 -18 -11
-31 -11 -16 0 -24 -5 -21 -12 2 -7 15 -13 30 -13 14 0 29 -3 33 -7 4 -5 -6 -8
-23 -8 -17 0 -36 7 -43 15 -14 17 -40 20 -40 6 0 -5 12 -19 26 -30 30 -24 86
-28 106 -8 19 19 46 28 53 17 10 -15 61 -12 75 5 15 18 1 40 -31 50 -16 6 -18
9 -8 21 7 9 8 18 3 24 -15 14 -61 22 -68 11z m74 -91 c-19 -13 -30 -13 -30 0
0 6 10 10 23 10 18 0 19 -2 7 -10z"/>
</g>
</svg>
